<svg xmlns="http://www.w3.org/2000/svg" viewBox="0 0 24 24" aria-hidden="true" focusable="false"><path d="M 5.4101562,6.6132812 C 5.1464333,6.6162668 4.8724885,6.7208218 4.6230469,6.9707031 L 0.46484375,11.128906 c -0.62597556,0.712942 -0.26027194,1.454701 0,1.712891 L 4.6230469,17 c 1.0078437,1.019987 2.8233176,-0.569261 1.6796875,-1.712891 L 2.984375,11.96875 6.3046875,8.6503906 C 7.1687793,7.9034402 6.352024,6.6026187 5.4101562,6.6132812 Z M 18.546875,6.625 c -0.951948,-0.018346 -1.66795,1.2129096 -0.853516,2.0273438 l 3.31836,3.3183592 -3.31836,3.31836 c -1.11797,1.266737 0.660609,2.70056 1.679688,1.679687 l 4.158203,-4.158203 c 0.42847,-0.363245 0.501276,-1.180366 0,-1.681641 L 19.373047,6.9707031 C 19.097877,6.7333274 18.81342,6.6301369 18.546875,6.625 Z" style="fill:#ddd4" /><path d="m 14.255859,2.5058594 c -0.438511,0.013763 -0.858587,0.2681268 -1.02539,0.8535156 L 8.4785156,19.992187 c -0.433163,1.51277 1.8595084,2.143321 2.2851564,0.654297 L 15.515625,4.0117187 C 15.769095,3.1260645 14.986712,2.4829208 14.255859,2.5058594 Z" style="fill:#dddd" /></svg>