<svg xmlns="http://www.w3.org/2000/svg" viewBox="0 0 24 24"><path d="M17 11c0-6.535-10-6.535-10 0s10 6.535 10 0zm2 13H5c0-8.759 14-9.558 14 0z" style="fill:#dddd"/><path d="M22.038 15.743l-1.091 1.677-3.401-2.162c3.464-4.496.331-11.257-5.545-11.257s-9.007 6.767-5.545 11.257l-3.401 2.161-1.091-1.676 1.785-1.162c-1.025-2.355-1.032-5.135.219-7.615L2.236 5.839l1.092-1.677 1.727 1.124c1.452-1.762 3.561-2.961 5.947-3.226V0h2v2.059a8.99 8.99 0 0 1 5.947 3.226l1.727-1.124 1.092 1.677-1.732 1.127c1.245 2.469 1.25 5.245.219 7.615l1.785 1.162z" style="fill:#ddd4"/></svg>