<svg viewBox="0 0 24 24" xmlns="http://www.w3.org/2000/svg"><path style="fill:#dddd" d="M 10,7 H 2 c -0.6694491,8.078607 0.079868,11 8,11 -0.5039587,-7.532747 6.770924,-4.567571 7,-4.414 2.181484,2.924952 7,-0.05258 7,4.414 0.108439,2.679532 0.249012,5.474415 -3,6 H 13 C 10.649118,23.861236 10,22.004021 10,20 5.8400534,20.149436 0.44390052,20.484017 0,15 V 1 c 0.006,-1.308 1.995,-1.307 2,0 v 4 h 8 C 9.8161093,-2.0596043 16.770927,0.43243136 17,0.586 19.181484,3.5109533 24,0.5334205 24,5 c 0.108439,2.6795318 0.249012,5.474415 -3,6 H 13 C 10.649118,10.861236 10,9.0040213 10,7 Z"/></svg>