<svg viewBox="0 0 24 24" xmlns="http://www.w3.org/2000/svg"><path d="M12 10c2.612 0 2.612 4 0 4s-2.612-4 0-4z" style="fill:#dddd"/><path d="m 16.95,16.95 c 2.732,-2.732 2.732,-7.168 0,-9.9 -0.922,-0.922 -2.332,0.488 -1.41,1.41 1.917,1.917 1.976,5.083 0,7.08 -0.913843,0.932284 0.473485,2.30919 1.42,1.41 z M 8.47,15.54 C 6.52,13.59 6.52,10.42 8.47,8.47 9.172,7.215 8.193,6.59 7.06,7.06 c -2.7284964,2.7360081 -2.7284964,7.163992 0,9.9 1.033,0.816 2.292,-0.538 1.41,-1.42 z" style="fill:#ddd7"/><path d="M20.49 20.49c4.68-4.68 4.68-12.29 0-16.97-.922-.922-2.332.488-1.41 1.41a10.01 10.01 0 0 1 0 14.14c-.91.91.452 2.33 1.42 1.41zM4.93 19.08a10.01 10.01 0 0 1 0-14.14c.922-.922-.488-2.332-1.41-1.41-4.68 4.66-4.68 12.28-.01 16.96 1.124.706 1.943-.25 1.42-1.41z" style="fill:#ddd4"/></svg>