<svg xmlns="http://www.w3.org/2000/svg" viewBox="0 0 512 512"><path fill="#49c" d="M473.5 474c-38.445-2.468-111.732 11.856-120.702-26.04l-.797-144.755c0-40.796-63.999-40.796-63.999 0v136.38.43c0 37.651-42.001 43.145-42.001 15.734 0-12.143 10.008-12.425 10.008-23.735V301.713c0-80.706 127.999-80.68 127.999 0v107.426c-.315 15.954-4.136 34.914 16 38.86H464c8.844 0 20.531-5.656 20.5-14.485L484 290.01c-.314-90.244-47.655-171.051-207.357-104.363-10.292 6.822-18.688-.237-20.773-11.086-1.786-19.723-91.818-32.74-95.869 17.438v240.015c.352 28.881-11.145 44.145-40.004 47.986C75.859 479.443 12.592 496.646 0 440.015V167.99c3.714-47.316 46.148-39.985 80.007-39.985 62.746 0 62.747-96.019 0-96.019-56.605 0-37.749 64.009-64.007 64.009C-18.87 95.995 4.658 0 80.007 0c108.855 0 100.136 159.989.001 159.989-15.369.767-46.135-7.162-48.005 16v256.023c.003 8.833 7.167 15.991 16 15.985h80.8c-2.072-85.158-.809-170.729-.809-255.998 0-84.01 126.688-69.719 145.85-54.377 15.172 11.485 25.806-8.522 78.155-9.618 82.938 0 161.743 27.272 159.194 143.911-1.221 55.878.805 112.137.805 168.1C512 462.101 495.602 474 473.5 474z"/></svg>