<svg xmlns="http://www.w3.org/2000/svg" viewBox="0 0 512 512"><path fill="#fff" d="M288 448.254c-11.534-164.02 96-60.931 96-176.25.586-28.454 2.368-49.474-16-73.371 0-64.26-.466-67.863-56.516-35.453-14.086-3.651-85.5-6.304-110.968 0-42.074-28.499-57.798-15.792-56.516 35.453-12.365 15.225-41.36 85.342 18.578 132.183l-.02.031c18.763 12.858-4.45 40.939-20.535 24.25-75.73-58.47-40.85-149.78-30.023-166.472-11.315-80.44 33.929-92.026 91.461-58.742 29.041-3.813 89.524-2.643 105.078 0C398.532 77.819 400 102.573 400 188.625c17.773 25.011 16 54.385 16 83.379 0 47.609-31.693 98.217-85.531 104.359-19.768 26.492-11.404 48.22-10.469 71.891C320 487.275 480 421.14 480 256c0-123.715-98.5-220.438-222.219-220.438-249.37 0-310.265 348.427-76.66 431.333 14.468 1.528 13.812-18.89 1.316-18.89-48.972 0-55.159-64-70.437-64-20.927 0-20.927-32 0-32 51.493 0 28.234 64 80 64 48.253 3.554 41.881 88 3.996 88C175.18 504.005 0 441.361 0 256c0-334.742 512-334.742 512 0 0 205.038-216.642 296.892-224 192.254z"/></svg>