<svg xmlns="http://www.w3.org/2000/svg" viewBox="0 0 512 512"><path fill="#f2a" d="M400.005 127.995c15.271.773 46.25-7.037 48.009 16.004-1.488 23.709-39.855 16.004-56.01 16.004-46.91-3.904-40.008-46.314-40.008-79.992a16.01 16.01 0 0 1 16-16.004c34.608 2.323-1.422 63.988 32.009 63.988zM256 384.009c-53.75 0-95.244-34.948-95.244-48.758 0-14.309 17.379-21.224 27.305-11.305l.243.257c55.003 55.076 151.459 24.057 162.615-54.647l.125.016c1.383-8.648 9.406-14.656 18.102-13.398 33.161 4.828-4.414 127.835-113.145 127.835zM416.005 512H95.995C45.813 512 0 491.65 0 415.993V255.994c0-112.813 108.496-36.927 154.121-77.266 20.352-28.8 60.236-50.734 101.878-50.734 82.264 0 94.193 62.387 128.004 64.008 31.819-1.758 92.259 14.464 96.011-32 1.908-53.271 6.216-122.332-64.01-127.998H95.995c-35.345 0-63.994 28.648-63.994 64.007v47.988c0 20.919-32 20.938-32 0V96.011C0 42.984 42.985 0 95.995 0h320.01C475.176 0 514.828 28.506 512 143.999c5.398 81.611-67.532 80.007-127.996 80.007-57.363 0-53.655-64.003-128.004-64.003-73.223 0-68.075 61.136-128.005 64.003-31.003 1.709-96.372-14.375-95.995 31.988C32.817 356.654 13.079 480 95.995 480h320.01c80.254-6.159 64.01-87.106 64.01-143.999 0-20.929 31.985-20.92 31.985 0 3.839 76.791 1.939 168.096-95.995 175.999z"/></svg>