<svg xmlns="http://www.w3.org/2000/svg" viewBox="0 0 512 512"><path fill="#08a" d="M505.25 110.42l-66.352 319.531c-11.253 55.272-58.735 54.784-86.528 36.528l-101.236-76.416c-17.934-21.837 5.39-34.364 22.419-22.513l97.765 73.804c15.762 8.884 31.484 8.058 36.725-17.682l66.478-320.129c12.04-44.594-11.654-39.88-28.234-32.255L55.958 225.103c-26.653 10.93-26.495 26.11-4.863 32.869l64.518 20.585c14.141 5.131 128.053-73.749 186.568-110.631 30.894-19.043 64.172 21.837 39.393 48.245l-90.479 90.471v.016l-.244.228-.016-.016c-14.377 13.779-36.308-7.523-22.199-22.207l-.016-.016 89.66-89.676-172.624 108.782c-33.255 16.494-71.412-5.351-103.95-15.738-43.469-14.755-55.139-68.477 2.306-92.044C292.203 97.53 323.624 82.508 456.902 37.316c48.033-16.289 54.155 41.478 48.348 73.104zM217.549 323.703c20.578 0 20.578 31.476 0 31.476s-20.578-31.476 0-31.476z"/></svg>