<svg viewBox="0 0 20 20" xmlns="http://www.w3.org/2000/svg"><path d="m 14.681584,0.29705575 c -0.0704,4.1586e-4 -0.140317,0.005838 -0.209826,0.0162447 -0.278013,0.041629 -0.544112,0.16244513 -0.762139,0.3573799 L 6.1728294,7.2801778 2.8210392,4.6126887 c -8.95e-4,-9.05e-4 -0.00179,-0.00181 -0.0027,-0.0027 C 2.533448,4.3886992 2.1211987,4.4143414 1.8659954,4.6695448 L 0.50551501,6.030025 C 0.21784427,6.3176956 0.22909993,6.7993217 0.52988173,7.07306 L 3.3835059,9.7263348 0.53935762,12.219873 c -2.2556e-4,2.31e-4 -4.5079e-4,4.62e-4 -6.757e-4,6.93e-4 -0.3080159,0.271739 -0.32312243,0.759847 -0.0324893,1.05048 l 1.35912658,1.359127 c 0.2523647,0.252364 0.6583861,0.280865 0.943537,0.06633 l 0.00135,-6.94e-4 3.2759824,-2.455633 7.6180124,7.083974 c 0.0016,0.0016 0.0031,0.0031 0.0047,0.0047 0.43604,0.390307 1.06487,0.484357 1.596026,0.23893 0.0041,-0.0019 0.0082,-0.0039 0.01222,-0.006 l 3.629301,-1.851879 c 0.463477,-0.236353 0.756725,-0.714257 0.756725,-1.234584 V 3.2034749 c 0,-0.5568681 -0.33566,-1.0619522 -0.848776,-1.2779039 L 15.305014,0.43175006 C 15.105851,0.33989296 14.892828,0.29581076 14.681631,0.29705604 Z M 0.99894307,6.5627104 c -0.66596205,-4.3751403 -0.33298102,-2.1875701 0,0 z M 14.504247,5.929172 v 7.983516 L 9.3391603,9.8014655 Z" fill="#0065A9"/></svg>