<svg viewBox="0 0 50 50" xmlns="http://www.w3.org/2000/svg"><path d="M 22.812874,1.22534 4.9851091,11.243121 C 3.6290082,12.007996 2.773176,13.434382 2.773176,14.980668 v 20.035564 c 0,1.55042 0.8558322,2.976806 2.2119331,3.74168 L 22.812874,48.77156 c 1.356101,0.764874 3.018151,0.764874 4.374252,0 L 45.014891,38.757912 c 1.360236,-0.764874 2.211933,-2.195395 2.211933,-3.74168 V 14.980668 c 0,-1.546286 -0.855832,-2.972672 -2.211933,-3.737547 L 27.187126,1.22534 c -1.355239,-0.76025654 -3.019577,-0.75993936 -4.374252,0 z m 3.340639,1.8439659 17.827765,10.0177821 c 0.706992,0.401042 1.128706,1.120437 1.128706,1.89358 v 8.959361 h -2.11684 v -2.11684 h -2.116841 v 2.11684 h -2.11684 v 2.116841 h 2.11684 v 2.11684 h 2.116841 v -2.11684 h 2.11684 v 8.959362 c 0,0.773143 -0.421714,1.492537 -1.13284,1.893579 L 26.153513,46.927593 c -0.711126,0.396908 -1.5959,0.396908 -2.307026,0 L 6.0228573,36.909811 C 5.3117312,36.508769 4.8900164,35.793509 4.8900164,35.016232 V 14.980668 c 0,-0.773143 0.4217148,-1.492538 1.1328409,-1.89358 L 23.846487,3.0693059 c 0.709729,-0.3961265 1.597063,-0.3962583 2.307026,0 z M 11.240538,24.99845 c 0,12.257782 15.954792,19.870748 25.426892,7.367597 l -6.408404,-3.71274 c -5.068359,5.502785 -11.609547,1.718355 -11.609547,-3.654857 0,-5.373202 6.541181,-9.157651 11.609547,-3.654858 L 36.66743,17.630853 C 27.719849,5.8200541 11.240538,11.857177 11.240538,24.99845 Z m 22.226824,-3.175261 v 2.11684 h -2.116841 v 2.116841 h 2.116841 v 2.11684 h 2.11684 v -2.11684 h 2.116841 v -2.116841 h -2.116841 v -2.11684 z" fill="#659AD2"/></svg>