<svg viewBox="0 0 20 20" xmlns="http://www.w3.org/2000/svg"><path d="m 0.14267515,9.9999995 c 0,6.9082085 19.71464985,7.0778605 19.71464985,0 0,-7.0778555 -19.71464985,-6.9082125 -19.71464985,0 z m 18.89320585,0 c 0,3.8801475 -9.7536389,6.1369145 -15.5256073,3.1205235 -3.384894,-1.765596 -3.38492926,-4.4754304 0,-6.2410465 C 9.2823975,3.8630007 19.035881,6.119963 19.035881,9.9999995 Z M 8.9764044,6.3035025 7.9463908,11.232166 h 1.0781449 l 0.51982,-2.4643315 h 0.8615533 c 0.546793,0 0.691364,0.1530395 0.595231,0.649774 l -0.393074,1.8145575 h 1.094189 L 12.129021,9.2700055 C 12.269302,7.737974 10.819859,7.9463905 9.7112114,7.9463905 l 0.3417336,-1.642888 z m 3.8986486,1.642888 -0.832674,4.5179395 h 1.086167 l 0.216591,-1.232164 c 1.969344,0.01173 2.796971,0.158514 3.149402,-1.5418125 0.136591,-1.2212297 -0.307711,-1.743963 -1.429504,-1.743963 z m 0.933751,0.821444 c 1.733695,0.061815 1.736866,-0.1594471 1.658931,0.667423 -0.139948,1.0873665 -0.33556,1.0167525 -1.970182,0.9754635 z" fill="#777BB3"/><path d="m 4.2483248,7.9458877 -0.832674,4.5179393 h 1.086167 l 0.216591,-1.232164 c 1.969344,0.01173 2.796971,0.158514 3.149402,-1.5418123 0.136591,-1.2212297 -0.307711,-1.743963 -1.429504,-1.743963 z m 0.933751,0.821444 c 1.733695,0.061815 1.736866,-0.1594471 1.658931,0.667423 -0.139948,1.0873663 -0.33556,1.0167523 -1.970182,0.9754633 z" fill="#777BB3"/></svg>