<svg viewBox="0 0 20 20" xmlns="http://www.w3.org/2000/svg"><path d="m 484.212,245.62 c -3.018,-3.45 -45.132,-56.127 -52.535,-65.038 -7.4,-8.912 -11.066,-7.332 -15.594,-6.685 -4.599,0.647 -57.853,9.63 -64.031,10.637 -6.182,1.078 -10.063,3.521 -6.253,8.839 3.377,4.743 38.375,54.403 46.138,65.326 L 252.731,292.045 141.915,106.989 c -4.385,-6.539 -5.319,-8.838 -15.38,-8.336 -10.06,0.431 -86.886,6.827 -92.349,7.331 -5.46,0.431 -11.498,2.875 -6.036,15.81 5.462,12.937 92.708,200.939 95.151,206.399 2.444,5.462 8.767,14.375 23.572,10.781 15.164,-3.665 67.77,-17.393 96.516,-24.938 15.163,27.523 46.14,83.292 51.887,91.27 7.619,10.708 12.937,8.913 24.651,5.319 9.199,-2.804 143.443,-51.1 149.481,-53.541 6.036,-2.517 9.773,-4.242 5.677,-10.35 -3.018,-4.455 -38.447,-51.889 -56.988,-76.753 12.721,-3.377 57.923,-15.379 62.738,-16.745 5.678,-1.436 6.469,-4.167 3.377,-7.616 z m -253.111,51.743 c -1.654,0.359 -79.629,19.045 -83.797,19.979 -4.169,0.936 -4.169,0.504 -4.672,-0.934 -0.502,-1.438 -92.707,-191.667 -94.001,-194.039 -1.292,-2.373 -1.221,-4.241 0,-4.241 1.223,0 73.664,-6.467 76.179,-6.612 2.586,-0.143 2.299,0.432 3.234,2.012 0,0 102.192,176.359 103.918,179.452 1.869,3.09 0.791,4.023 -0.861,4.383 z m 219.91,41.253 c 1.221,1.939 2.515,3.231 -1.438,4.599 -3.882,1.438 -132.019,44.63 -134.462,45.705 -2.516,1.078 -4.456,1.438 -7.617,-3.232 -3.162,-4.672 -44.846,-76.753 -44.846,-76.753 l 135.685,-35.287 c 3.378,-1.078 4.456,-1.798 6.611,1.58 2.084,3.45 44.844,61.447 46.067,63.388 z m 8.696,-96.373 c -3.02,0.646 -52.895,13.007 -52.895,13.007 l -40.748,-55.913 c -1.148,-1.652 -2.084,-3.234 0.791,-3.594 2.874,-0.358 49.155,-8.766 51.241,-9.198 2.081,-0.504 3.878,-1.078 6.467,2.443 2.588,3.521 37.802,48.15 39.167,49.876 1.294,1.653 -1.005,2.659 -4.023,3.379 z" transform="matrix(0.04298717,0,0,0.04298717,-1.0047407,-1.004702)" fill="#FB503B "/></svg>