<svg viewBox="0 0 20 20" xmlns="http://www.w3.org/2000/svg"><path d="m 9.9999999,0.22078085 c -3.7422908,0 -6.9998356,2.11417695 -8.6437563,5.21101805 -0.00527,0.010534 -0.011852,0.022394 -0.015807,0.034248 C 0.62649016,6.8228086 0.220779,8.363985 0.220779,10.000001 c 0,4.241527 2.7148402,7.859996 6.4979656,9.211488 0.013172,0.0053 0.026346,0.0092 0.039518,0.01317 1.0155954,0.358291 2.1062735,0.55456 3.2417384,0.55456 5.391479,0 9.77922,-4.38774 9.77922,-9.7792198 0,-2.0246041 -0.619105,-3.906946 -1.676852,-5.4691978 -0.02502,-0.052688 -0.05138,-0.1014263 -0.08167,-0.1488472 C 17.960107,4.2857966 17.886341,4.1988584 17.807306,4.1185066 16.019807,1.752736 13.186413,0.22078085 9.9999999,0.22078085 Z m 0,0.67442903 c 2.5225231,0 4.8066241,1.03140242 6.4584481,2.69244722 -0.119865,0.00132 -0.241056,0.00922 -0.363558,0.030296 -0.860161,0.1488484 -1.513515,0.7798085 -1.70715,1.6439207 -0.212076,0.9457812 0.164656,1.6821208 0.528215,2.3934315 0.374098,0.7284371 0.728436,1.4186723 0.45445,2.3196676 L 14.125609,13.166656 11.501658,6.2906427 h 0.521629 c 0.187049,0 0.337215,-0.1501656 0.337215,-0.3372145 0,-0.1870485 -0.150166,-0.3372145 -0.337215,-0.3372145 H 7.3022837 c -0.1870485,0 -0.3372145,0.150166 -0.3372145,0.3372145 0,0.1870489 0.150166,0.3372145 0.3372145,0.3372145 H 7.9701266 L 9.1846256,9.4059247 7.718533,13.166656 5.0945825,6.2906422 h 0.8588431 c 0.187049,0 0.3372146,-0.1501656 0.3372146,-0.3372145 0,-0.1870485 -0.1501656,-0.3372145 -0.3372146,-0.3372145 H 2.0240861 v -0.00132 C 3.5757999,2.8038967 6.5685788,0.89520988 9.9999999,0.89520988 Z M 18.281514,6.2247802 c 0.526898,1.1512713 0.823278,2.428998 0.823278,3.7752218 0,3.536799 -2.028556,6.607296 -4.983135,8.114223 l 2.742503,-7.034084 c 0.162021,-0.375413 1.228989,-2.8926675 1.417354,-4.8553608 z M 1.6210096,6.4381736 6.240585,18.288102 c -3.1495309,-1.433163 -5.34537707,-4.60772 -5.34537707,-8.2881 0,-1.2632373 0.25817987,-2.4671984 0.72580167,-3.5618284 z m 8.5265214,5.4375844 2.646343,6.787758 c -0.881236,0.285842 -1.819113,0.441277 -2.7938741,0.441277 -0.8786019,0 -1.7269073,-0.127773 -2.5304261,-0.359607 z" fill="#00749C"/></svg>