<svg viewBox="0 0 20 20" xmlns="http://www.w3.org/2000/svg"><path d="m 9.9999999,3.6398632 c -2.6382841,0 -4.2871991,1.4133638 -4.9467735,4.2400773 0.9893546,-1.4133638 2.1436064,-1.9433611 3.4627412,-1.5900342 0.7526446,0.2016021 1.290599,0.7866217 1.8860354,1.4342108 0.970006,1.0549207 2.092669,2.275869 4.544771,2.275869 2.638326,0 4.287156,-1.4133638 4.946773,-4.2400771 C 18.904193,7.1732585 17.749898,7.70327 16.430807,7.3499291 15.67819,7.1483269 15.140263,6.5633215 14.544813,5.9157322 13.57482,4.8608117 12.452101,3.6398632 9.9999999,3.6398632 Z M 5.0532264,9.9999861 c -2.6382838,0 -4.28720307,1.4133499 -4.94677332,4.2401049 0.98935462,-1.413392 2.14360652,-1.943403 3.46274132,-1.590062 0.7526445,0.201602 1.290599,0.786622 1.886035,1.434168 0.9700058,1.054935 2.0926689,2.27594 4.5447705,2.27594 2.6382831,0 4.2871571,-1.413364 4.9467741,-4.240119 -0.989355,1.413364 -2.143608,1.943403 -3.462742,1.590062 C 10.731387,13.50845 10.193433,12.923444 9.5979965,12.275841 8.6279909,11.220935 7.5053277,9.9999861 5.0532264,9.9999861 Z" fill="#06b6d4"/></svg>