<svg viewBox="0 0 20 20" xmlns="http://www.w3.org/2000/svg"><path d="M 0.96306261,0.51121579 A 0.45189205,0.45189205 0 0 0 0.51121579,0.96306261 V 19.036937 a 0.45189205,0.45189205 0 0 0 0.45184682,0.451847 H 19.036937 a 0.45189205,0.45189205 0 0 0 0.451847,-0.451847 V 0.96306261 A 0.45189205,0.45189205 0 0 0 19.036937,0.51121579 Z M 1.4149095,1.4149095 H 18.58509 V 18.58509 H 1.4149095 Z M 5.481531,9.0963063 v 1.5567527 h 2.2592344 v 7.028337 H 9.548153 v -7.028337 h 2.259234 V 9.0963063 Z m 9.801194,0.00443 c -1.407333,-0.0056 -3.015548,0.4208741 -3.015548,2.4013187 0,2.589083 3.488575,2.589718 3.488575,3.757742 0,0.110702 0.04695,0.915166 -1.184333,0.915166 -1.231283,0 -2.257469,-0.773964 -2.257469,-0.773964 v 1.878871 c 0,0 5.368329,1.736327 5.368329,-2.178926 -4.67e-4,-2.541638 -3.521229,-2.414521 -3.521229,-3.677433 0,-0.48935 0.347647,-0.946937 1.310533,-0.946936 0.962886,0 1.81533,0.568338 1.81533,0.568338 l 0.06354,-1.6741277 c 0,0 -0.973136,-0.2656923 -2.067728,-0.270049 z" fill="#007acc"/></svg>