<svg viewBox="0 0 20 20" xmlns="http://www.w3.org/2000/svg"><path d="m 1.4899877,0.25147516 c -0.67819,0 -1.23851249,0.56032249 -1.23851249,1.23851234 V 18.510012 c 0,0.67819 0.56032249,1.238513 1.23851249,1.238513 H 18.510012 c 0.67819,0 1.238513,-0.55851 1.238513,-1.238513 V 1.4899875 c 0,-0.67818985 -0.55851,-1.23851234 -1.238513,-1.23851234 z m 0,0.92843084 H 18.510012 c 0.172268,0 0.310082,0.137814 0.310082,0.3100815 V 18.510012 c 0,0.172268 -0.137814,0.310082 -0.310082,0.310082 H 1.4899877 c -0.1722676,0 -0.3100816,-0.137814 -0.3100816,-0.310082 V 1.4899875 c 0,-0.1722675 0.137814,-0.3100815 0.3100816,-0.3100815 z m 7.581581,7.8916627 v 5.8371473 c 0,0.89579 -0.339095,1.126085 -0.9284303,1.126085 -0.616536,0 -1.0444846,-0.384428 -1.3273661,-0.883098 l -1.4579269,0.883098 c 0.4225086,0.893977 1.4579269,1.856861 2.8940928,1.856861 1.5884874,0 2.6764928,-0.845017 2.6764928,-2.700065 V 9.0715687 Z m 5.7809333,0 c -1.581234,0 -2.594892,1.0118453 -2.594892,2.3410253 0,1.441606 0.850458,2.123423 2.128863,2.667425 l 0.442456,0.190401 c 0.806937,0.353602 1.205872,0.569389 1.205872,1.176858 0,0.505922 -0.384428,0.872218 -1.118831,0.872218 -0.874031,0 -1.287474,-0.592963 -1.666462,-1.213126 l -1.392646,0.928431 c 0.520429,1.028165 1.4543,1.856861 3.099,1.856861 1.682782,0 2.935801,-0.87403 2.935801,-2.467957 0,-1.479687 -0.848644,-2.13793 -2.355531,-2.783479 l -0.442455,-0.188588 c -0.75979,-0.330028 -1.089819,-0.544003 -1.089819,-1.075312 0,-0.429762 0.330029,-0.75979 0.848644,-0.75979 0.509549,0 0.835951,0.215788 1.138778,0.75979 l 1.379953,-0.88491 C 16.789151,9.4632506 15.978587,9.0715687 14.852502,9.0715687 Z" fill="#F0DB4F"/></svg>