<svg viewBox="0 0 20 20" xmlns="http://www.w3.org/2000/svg"><path d="M 9.5971564,18.292564 C 9.3607553,18.261196 9.0514014,18.152663 8.5199701,17.914605 8.2181696,17.77941 7.0058088,17.267368 5.8258353,16.776738 1.0740975,14.800969 0.71210036,14.64001 0.44155163,14.382642 L 0.28589594,14.234568 v -1.012276 -1.012277 l 0.11703323,0.133294 c 0.25441763,0.289765 0.39232674,0.353015 4.52911483,2.077184 1.501939,0.625995 3.0591686,1.281529 3.4605163,1.456753 0.8589127,0.374985 1.054249,0.431602 1.4890536,0.431602 0.5334661,0 0.5605071,-0.0095 2.2946281,-0.80659 0.521505,-0.239712 1.93811,-0.863162 3.148,-1.385446 3.843037,-1.65896 4.115549,-1.79223 4.307071,-2.10633 l 0.07331,-0.120215 1.51e-4,1.02154 1.52e-4,1.021541 -0.18274,0.176136 c -0.303174,0.292217 -0.729079,0.494776 -4.076353,1.938659 -2.461923,1.061974 -3.47387,1.509934 -3.971249,1.75796 -0.860764,0.429229 -1.351071,0.55627 -1.8774236,0.486461 z M 9.2937356,15.023294 C 9.1685739,14.986725 8.788878,14.834392 8.4499659,14.684745 8.1110539,14.535096 6.6091149,13.902294 5.1123228,13.278515 0.87520489,11.512717 0.66330876,11.416498 0.42094485,11.148237 L 0.28589594,10.998746 0.28848794,9.98429 c 0.001301,-0.598191 0.0156414,-0.9816662 0.034706,-0.9345422 0.11523116,0.2851333 0.40287663,0.4213519 4.41940786,2.0928902 2.741516,1.140918 3.1177453,1.299343 3.8399277,1.616924 1.2053033,0.530035 1.5552145,0.504784 3.0807245,-0.222329 0.779176,-0.371382 1.515722,-0.696528 4.002541,-1.76692 3.368491,-1.4498912 3.828042,-1.6790571 3.978407,-1.9839298 0.05513,-0.1117996 0.05923,-0.050602 0.06003,0.8982197 0.0013,1.4486461 0.418186,1.1404251 -4.309602,3.1857871 -2.837155,1.227431 -3.150737,1.366266 -3.961815,1.754082 -0.97926,0.468237 -1.5419685,0.57316 -2.1388809,0.398822 z M 9.4408293,11.741436 C 9.2153943,11.689954 8.9926099,11.601968 8.0421189,11.189013 7.7917955,11.08026 6.3666597,10.482558 4.8751497,9.8607868 0.96999353,8.2328373 0.71149379,8.1158564 0.43226652,7.8502386 L 0.28589594,7.7109949 V 6.6126607 5.5143216 L 0.40915972,5.3970895 C 0.62180481,5.1948514 1.3476571,4.8993456 6.7715384,2.8068679 10.74582,1.2736286 9.8397932,1.2255086 14.982896,3.2429512 c 1.314193,0.5155073 2.805015,1.0980012 3.312931,1.2944287 1.065145,0.4119188 1.120324,0.4374305 1.285807,0.5944731 l 0.123264,0.1169768 V 6.3222202 7.3956105 L 19.566009,7.5493469 C 19.292301,7.8523053 18.969842,8.0069857 15.381136,9.5567372 12.768241,10.685099 11.891273,11.074107 11.364497,11.33846 10.577789,11.733247 9.9660985,11.861385 9.4408293,11.741436 Z M 11.05003,7.5224969 c 0.361019,-0.5331903 0.651168,-0.9732431 0.644772,-0.9778957 -0.01299,-0.00948 -4.2938122,0.6477313 -4.3574218,0.6689362 -0.03406,0.011347 2.9821408,1.2817073 3.0372918,1.2792423 0.01042,-4.337e-4 0.314346,-0.4370976 0.675358,-0.9702828 z m 4.617175,-1.5135944 c 0.770943,-0.3038812 1.414715,-0.5652135 1.430608,-0.5807379 0.02153,-0.021009 -2.290776,-0.9658419 -2.535112,-1.0358642 -0.05851,-0.016763 -2.937963,1.1214795 -2.906036,1.1487552 0.0146,0.012476 0.495872,0.2071854 1.069531,0.4327293 0.573654,0.2255399 1.136883,0.448518 1.251611,0.4955028 0.114729,0.046981 0.226398,0.086942 0.248144,0.088777 0.02175,0.00171 0.670315,-0.2452793 1.441254,-0.5491645 z M 7.0167401,6.3896776 C 9.0438631,6.0345997 8.7889556,4.8968201 6.629635,4.6618215 4.9978725,4.4842336 3.3436011,5.0756566 3.6757101,5.717881 c 0.3031136,0.5861672 1.945063,0.9163174 3.34103,0.6717966 z M 10.678441,4.6973465 c 0.190431,-0.4701092 0.05527,-0.4076645 1.108737,-0.5122668 0.3701,-0.036743 0.660251,-0.077632 0.644773,-0.090855 C 12.416479,4.081012 12.156328,3.9794476 11.853856,3.8685456 11.165022,3.6159911 11.206981,3.674584 11.392794,3.2247047 c 0.0867,-0.2099111 0.157641,-0.3885656 0.157641,-0.3970058 0,-0.00845 -0.279098,0.077864 -0.62022,0.1917913 L 10.310002,3.2266294 9.6752254,2.978672 C 9.3261016,2.8422972 9.0262155,2.7307145 9.0088101,2.7307145 c -0.017419,0 0.059921,0.16641 0.1718257,0.3697959 0.1119086,0.2033902 0.1916659,0.3801641 0.1772469,0.3928375 -0.014433,0.012652 -0.3248994,0.1305126 -0.6899555,0.261874 -0.365056,0.1313626 -0.6678318,0.2417189 -0.6728405,0.2452369 -0.00504,0.00343 0.3278103,0.035916 0.7395919,0.072014 0.4117806,0.036088 0.8388341,0.075655 0.949008,0.08792 l 0.2003137,0.02231 0.2918887,0.4866604 c 0.160538,0.2676622 0.30248,0.4743282 0.315422,0.4592546 0.01296,-0.015079 0.09715,-0.2091441 0.18713,-0.4312608 z" fill="#d82c20"/></svg>