<svg width="2371.8401" height="2810.5601" xmlns="http://www.w3.org/2000/svg"><path fill="#ffffff" d="M 1298.4,2726.186 C 713.7613,2711.5441 224.9572,2285.5002 122.10548,1700.9222 78.728766,1454.3822 97.270096,1143.3888 294.25471,809.30907 c 10.42128,-17.67415 9.22303,-22.4271 9.55254,37.89095 0.92314,168.98508 1.5741,198.24028 5.33305,239.67378 45.19429,498.1601 602.53737,1032.6141 1284.6198,826.6874 325.3948,-98.2399 537.3897,-399.6614 561.2463,-458.8412 1.8686,-4.6353 2.3218,-4.8889 4.723,-2.6429 25.9423,24.266 154.6426,281.4641 105.235,504.0829 -28.5528,128.6518 -148.882,243.8939 -308.0043,294.9831 -154.1568,49.4948 -499.1725,80.5781 -871.5201,-68.3579 -119.76116,-47.9035 -190.53622,-94.3898 -191.94237,-87.0137 -0.51169,2.6842 17.62884,17.1328 55.84873,44.4825 354.17304,259.5282 719.49494,278.9074 1004.41374,256.2073 49.8749,-3.9737 78.821,-8.0312 104.9902,-14.7169 16.0261,-4.0943 15.3351,-4.1449 13.323,0.9756 -6.7086,17.0724 -58.4291,74.2036 -108.2332,119.556 -179.0684,170.3287 -424.4265,226.6057 -665.4401,223.91 z m 304.9502,-1167.5175 c -23.3761,-20.5247 -29.9022,-104.6177 -172.2301,-193.6736 -4.7048,-2.9438 -4.3178,-3.3811 12.0773,-13.6488 114.2883,-71.5752 150.1546,-31.3396 149.0137,-79.9861 -0.7547,-32.1798 -17.6589,-92.5033 -36.4517,-130.08 -43.9622,-87.9032 -170.6509,-186.29322 -297.9254,-231.37732 -68.5914,-24.29695 -188.7656,-47.11376 -202.7202,-38.48935 -7.3067,4.51575 -49.0849,199.36977 147.7662,236.10837 29.6991,5.0921 36.5909,7.0282 34.9022,9.8049 -31.0401,51.0422 -312.4958,82.785 -341.74768,-155.08658 -2.8131,-22.8756 -1.48325,-56.59669 3.17385,-80.48 5.82147,-29.85457 6.77548,-41.61623 -34.56834,-43.03616 C 607.16569,816.99303 306.18153,737.97863 174.38954,496.64488 92.516174,332.74626 140.93723,142.70534 143.8518,131.68 c 6.44171,-24.36788 8.88536,-22.69862 14.05348,9.6 47.09499,294.32398 496.54189,395.75147 809.13476,378.22822 C 1287.1144,500.79512 1522.6268,390.28152 1613.838,216 c 41.8543,-79.97312 32.9476,-151.115134 44.0069,-154.801614 74.7016,129.174794 83.461,342.587964 40.3982,450.480104 -12.7508,31.94642 -39.9641,79.91426 -36.5551,85.48382 33.5932,50.55766 67.552,99.94401 89.4629,156.93193 39.7072,106.17759 56.7152,209.61388 51.7206,314.54576 -4.4706,93.9212 -48.6871,243.6207 -100.7042,340.9447 -20.179,37.755 -90.4188,156.4574 -98.8171,149.0838 z" /></svg>
